<?xml version="1.0" standalone="no"?>
<!DOCTYPE svg PUBLIC "-//W3C//DTD SVG 20010904//EN"
 "http://www.w3.org/TR/2001/REC-SVG-20010904/DTD/svg10.dtd">
<svg version="1.0" xmlns="http://www.w3.org/2000/svg"
 width="1024.000000pt" height="1024.000000pt" viewBox="0 0 1024.000000 1024.000000"
 preserveAspectRatio="xMidYMid meet">

<g transform="translate(0.000000,1024.000000) scale(0.100000,-0.100000)"
fill="#000000" stroke="none">
<path d="M0 5120 l0 -5120 5120 0 5120 0 0 5120 0 5120 -5120 0 -5120 0 0
-5120z m2711 2800 c197 -382 482 -735 779 -967 166 -129 335 -222 590 -323
363 -144 524 -253 645 -435 65 -97 86 -150 114 -280 22 -100 47 -178 77 -238
11 -22 -6 -8 -52 43 -195 214 -401 364 -626 455 -107 43 -194 66 -383 100
-254 46 -398 105 -551 223 -384 297 -662 879 -739 1547 -8 71 -15 152 -15 180
l1 50 42 -105 c24 -58 77 -170 118 -250z m3584 -440 c128 -287 339 -509 641
-677 143 -79 217 -116 213 -106 -2 4 -19 39 -38 76 -29 58 -35 81 -38 150 -3
68 -1 78 8 57 71 -152 125 -213 315 -356 202 -151 260 -223 283 -349 18 -96
17 -99 -26 -92 -51 9 -146 57 -345 176 -138 83 -298 171 -310 171 -2 0 30 -35
71 -77 40 -43 87 -98 103 -123 102 -158 258 -227 457 -201 121 15 116 17 158
-39 28 -38 54 -58 99 -80 71 -33 87 -61 87 -149 0 -88 -29 -165 -83 -221 -25
-26 -56 -53 -69 -59 -21 -12 -22 -11 -11 10 16 29 8 114 -15 162 -28 59 -76
90 -146 95 -43 3 -65 0 -84 -12 -13 -9 -26 -16 -28 -16 -2 0 -9 18 -16 41 -16
54 -75 110 -138 132 -28 10 -94 22 -147 27 -52 5 -108 12 -123 15 -15 3 3 -11
42 -31 144 -75 202 -149 193 -245 -3 -27 -3 -49 -1 -49 15 0 65 34 83 57 l23
28 -7 -43 c-15 -101 -72 -136 -273 -170 -59 -10 -60 -13 11 68 46 53 75 114
76 155 0 74 -82 135 -200 149 -90 11 -163 27 -193 43 -81 41 -148 137 -163
234 l-7 42 29 -6 c84 -19 154 -20 198 -3 68 26 76 42 22 48 -51 6 -91 34 -134
94 l-30 40 51 -13 c58 -15 97 -17 97 -5 0 11 -77 83 -117 111 -47 32 -155 74
-310 122 -288 87 -445 177 -618 353 -60 62 -119 127 -129 146 l-20 35 31 -25
c17 -14 57 -47 89 -73 157 -129 456 -270 699 -330 120 -30 235 -50 243 -42 3
3 -1 5 -9 5 -27 0 -230 140 -297 203 -35 34 -84 88 -108 119 -53 68 -118 200
-138 282 -20 76 -31 221 -21 282 l7 49 17 -60 c10 -33 30 -89 46 -125z m-2055
-654 c91 -35 246 -94 345 -131 430 -161 625 -273 702 -403 41 -69 45 -104 27
-232 -63 -446 136 -822 611 -1152 81 -57 292 -188 302 -188 3 0 45 -27 94 -60
49 -32 95 -57 102 -54 31 13 52 59 51 114 -1 81 -38 148 -154 280 -129 147
-183 223 -226 315 -57 124 -75 235 -57 361 l7 49 12 -70 c27 -145 127 -303
357 -561 140 -157 203 -291 194 -414 -7 -108 -61 -185 -146 -211 -55 -16 -113
5 -284 108 -347 208 -575 377 -715 530 -226 244 -350 487 -405 793 -41 224
-85 309 -240 462 -106 106 -269 216 -519 351 -178 96 -356 205 -379 233 -6 8
25 -2 72 -21 46 -20 158 -65 249 -99z m-2138 -152 c246 -170 561 -310 923
-412 148 -42 208 -54 580 -117 176 -30 355 -65 397 -79 119 -39 312 -142 488
-259 64 -43 300 -218 300 -223 0 -3 -17 4 -39 15 -58 30 -264 99 -375 126
-143 35 -243 40 -550 25 -448 -22 -594 3 -911 155 -327 157 -634 423 -890 770
-70 95 -75 104 -48 85 12 -8 68 -47 125 -86z m4309 -134 c66 -20 240 -118 247
-138 2 -8 -9 -12 -30 -12 -68 0 -219 -50 -338 -111 -77 -39 -100 -56 -191
-139 -136 -123 -220 -273 -248 -443 l-18 -102 -13 75 c-38 219 35 435 192 570
69 59 249 160 287 160 30 0 -5 21 -60 35 -87 23 -216 19 -291 -9 -35 -13 -72
-27 -83 -31 -37 -13 59 64 120 97 87 47 166 66 271 67 65 1 110 -5 155 -19z
m237 -277 c-3 -12 13 -153 18 -168 4 -8 -8 -17 -30 -25 -57 -19 -141 -102
-178 -178 -62 -125 -50 -264 33 -392 76 -118 167 -192 409 -330 389 -223 525
-349 641 -595 59 -125 80 -213 86 -355 14 -327 -115 -589 -392 -799 -99 -74
-268 -154 -394 -185 -128 -32 -143 -32 -67 -1 32 14 102 54 155 89 351 236
528 571 491 934 -23 224 -108 393 -278 553 -106 100 -239 187 -470 307 -223
117 -266 146 -360 247 -156 168 -223 422 -156 593 57 145 240 272 434 301 30
5 56 9 58 10 1 0 1 -2 0 -6z m-3900 -673 c135 -34 310 -64 467 -81 157 -17
519 -14 715 6 281 28 366 30 481 10 132 -22 243 -54 358 -104 187 -80 287
-149 470 -323 l102 -97 -83 38 c-115 54 -281 109 -380 126 -114 20 -240 19
-463 -6 -342 -39 -667 -29 -943 27 -250 50 -524 159 -762 302 -68 41 -280 189
-280 196 0 2 45 -12 100 -31 55 -18 153 -46 218 -63z m3982 -615 c124 -74 194
-132 331 -271 121 -125 174 -203 203 -303 20 -68 14 -74 -69 -68 -71 6 -146
37 -174 74 -27 33 -26 25 3 -39 31 -70 133 -171 209 -206 l58 -27 -5 -65 c-7
-93 -32 -159 -65 -172 -41 -16 -120 -2 -193 35 -38 18 -68 30 -68 26 0 -4 3
-9 8 -11 14 -6 212 -218 212 -226 0 -5 -16 -30 -35 -56 -37 -47 -97 -86 -135
-86 -38 0 -101 40 -181 117 l-79 76 41 -74 c51 -91 89 -190 89 -229 0 -31 -38
-63 -127 -109 -83 -42 -125 -23 -208 93 -24 34 -54 71 -66 81 l-22 20 22 -42
c29 -58 51 -147 51 -209 l0 -52 -67 -13 c-38 -7 -104 -13 -147 -13 l-80 -1
-23 75 c-13 41 -28 79 -32 83 -5 5 -9 -21 -10 -57 -1 -36 -6 -77 -11 -92 l-11
-27 -90 6 c-111 8 -236 37 -353 81 l-88 33 78 7 c304 26 581 123 798 277 120
86 192 160 274 283 58 86 76 125 113 237 42 129 44 138 43 254 0 79 -6 142
-17 183 -43 162 -123 308 -224 410 -28 28 -50 52 -48 52 2 0 45 -25 95 -55z
m-1844 30 c111 -23 332 -94 524 -167 130 -50 339 -156 440 -223 232 -156 343
-240 444 -337 l61 -58 -89 54 c-106 66 -514 269 -644 321 -115 45 -226 78
-357 104 -200 39 -267 44 -545 37 -391 -10 -616 16 -868 100 -110 37 -359 150
-350 159 3 3 45 -1 94 -10 286 -50 592 -47 958 10 184 28 235 30 332 10z m69
-435 c185 -7 276 -15 350 -30 273 -58 584 -225 767 -413 31 -32 45 -54 41 -65
-4 -10 -2 -13 5 -8 7 4 19 0 28 -8 8 -9 12 -16 7 -16 -5 0 -14 5 -21 12 -9 9
-12 9 -12 -3 0 -12 -2 -12 -10 1 -9 13 -12 13 -21 -3 -6 -9 -14 -15 -20 -12
-5 4 -9 0 -9 -7 0 -7 -21 8 -47 33 -60 58 -116 95 -218 147 -140 70 -291 115
-595 176 -261 53 -390 94 -557 180 l-68 35 65 -5 c36 -2 178 -9 315 -14z
m-839 -166 c37 -8 83 -23 102 -33 l34 -18 -111 5 c-63 3 -146 -1 -189 -7 -499
-78 -825 -376 -923 -846 -14 -67 -17 -258 -7 -410 3 -55 4 -88 2 -72 -3 15
-10 25 -15 22 -5 -4 -12 7 -15 24 -4 17 -10 31 -15 31 -11 0 -12 4 6 -54 8
-27 15 -56 14 -65 -2 -28 -39 101 -54 188 -19 107 -19 272 0 381 75 426 397
764 816 855 89 19 272 19 355 -1z m2564 -163 c-17 -179 -41 -254 -113 -361
-143 -210 -363 -323 -738 -378 -125 -19 -196 -25 -604 -52 -570 -38 -905 -148
-1116 -367 -125 -129 -194 -272 -204 -425 -3 -60 -3 -65 4 -28 30 157 157 338
334 476 l62 49 -48 -59 c-99 -122 -142 -248 -135 -396 3 -69 10 -98 34 -150
32 -67 105 -149 166 -184 31 -19 31 -17 -14 32 -68 77 -106 206 -92 314 l7 51
20 -54 c26 -69 111 -156 196 -199 179 -90 390 -99 800 -34 569 90 753 108
1036 101 536 -14 1034 -168 1447 -449 68 -46 77 -61 15 -25 -111 65 -416 168
-627 210 -244 50 -380 62 -701 61 l-297 0 -16 31 c-20 37 -42 52 -95 64 -38 8
-39 8 -45 -21 -13 -67 -69 -116 -173 -154 -147 -54 -574 -163 -753 -193 -419
-70 -716 -45 -975 84 -353 174 -485 485 -344 807 115 262 347 444 735 578 246
85 415 118 910 180 411 52 582 83 717 129 264 90 390 173 506 330 52 70 83
127 97 176 l8 30 4 -29 c2 -17 -1 -82 -8 -145z m-1485 -195 c93 -31 228 -96
269 -129 l29 -23 -114 4 c-63 2 -145 -1 -184 -6 -60 -9 -71 -8 -80 5 -44 70
-124 133 -194 154 -65 19 -27 30 94 25 75 -2 120 -10 180 -30z m-508 -59 c40
-14 117 -52 170 -83 l98 -58 -35 -7 c-19 -4 -84 -15 -145 -24 -88 -14 -110
-15 -114 -4 -2 7 -21 31 -42 54 -43 46 -113 88 -174 103 -22 6 -53 13 -70 17
l-30 8 40 13 c65 22 216 12 302 -19z m-372 -152 c33 -9 94 -32 135 -53 l74
-36 -34 -9 c-19 -5 -74 -20 -123 -35 l-87 -25 -23 20 c-53 49 -153 84 -282 99
l-60 7 34 14 c111 46 240 52 366 18z m-265 -225 c22 -12 20 -13 -35 -42 -207
-106 -388 -316 -477 -553 l-18 -50 5 90 c6 113 25 187 77 295 62 128 168 232
271 266 48 16 143 12 177 -6z"/>
<path d="M6058 4054 c9 -12 19 -20 21 -18 2 2 -1 10 -7 17 -7 8 -10 16 -7 19
3 2 -1 5 -9 5 -12 0 -11 -5 2 -23z"/>
<path d="M3002 3100 c0 -14 2 -19 5 -12 2 6 2 18 0 25 -3 6 -5 1 -5 -13z"/>
</g>
</svg>
